HIERARCHY
ROOT joint_Root
{
	OFFSET 0.0 0.0 0.0
	CHANNELS 6 Xposition Yposition Zposition Zrotation Xrotation Yrotation 
	JOINT Hips
	{
		OFFSET 4.5925 91.4895 -427.239
		CHANNELS 6 Xposition Yposition Zposition Zrotation Xrotation Yrotation 
		JOINT Spine
		{
			OFFSET 15.7357 0.0 0.0
			CHANNELS 6 Xposition Yposition Zposition Zrotation Xrotation Yrotation 
			JOINT Chest
			{
				OFFSET 8.98455 -0.406207 0.0
				CHANNELS 6 Xposition Yposition Zposition Zrotation Xrotation Yrotation 
				JOINT Neck
				{
					OFFSET 16.3773 0.0 0.0
					CHANNELS 6 Xposition Yposition Zposition Zrotation Xrotation Yrotation 
					JOINT Head
					{
						OFFSET 6.45672 0.0 0.0
						CHANNELS 6 Xposition Yposition Zposition Zrotation Xrotation Yrotation 
						End Site
						{
							OFFSET 0.0 0.0 0.0
						}
					}
				}
				JOINT Shoulder_L
				{
					OFFSET 12.9942 -0.242716 4.98039
					CHANNELS 6 Xposition Yposition Zposition Zrotation Xrotation Yrotation 
					JOINT UpperArm_L
					{
						OFFSET 5.34809 0.0 0.0
						CHANNELS 6 Xposition Yposition Zposition Zrotation Xrotation Yrotation 
						JOINT LowerArm_L
						{
							OFFSET 24.3286 1.87007e-05 0.0
							CHANNELS 6 Xposition Yposition Zposition Zrotation Xrotation Yrotation 
							JOINT Hand_L
							{
								OFFSET 22.2916 0.0 0.0
								CHANNELS 6 Xposition Yposition Zposition Zrotation Xrotation Yrotation 
								End Site
								{
									OFFSET 0.0 0.0 0.0
								}
							}
						}
					}
				}
				JOINT Shoulder_R
				{
					OFFSET 12.9945 -0.242716 -4.98039
					CHANNELS 6 Xposition Yposition Zposition Zrotation Xrotation Yrotation 
					JOINT UpperArm_R
					{
						OFFSET -5.34813 0.0 0.0
						CHANNELS 6 Xposition Yposition Zposition Zrotation Xrotation Yrotation 
						JOINT LowerArm_R
						{
							OFFSET -24.3289 0.000322201 0.0
							CHANNELS 6 Xposition Yposition Zposition Zrotation Xrotation Yrotation 
							JOINT Hand_R
							{
								OFFSET -22.2915 -0.000108084 0.0
								CHANNELS 6 Xposition Yposition Zposition Zrotation Xrotation Yrotation 
								End Site
								{
									OFFSET 0.0 0.0 0.0
								}
							}
						}
					}
				}
			}
		}
		JOINT UpperLeg_L
		{
			OFFSET -2.19248 -6.46944 0.0
			CHANNELS 6 Xposition Yposition Zposition Zrotation Xrotation Yrotation 
			JOINT LowerLeg_L
			{
				OFFSET 39.0811 0.0 -1.23785e-05
				CHANNELS 6 Xposition Yposition Zposition Zrotation Xrotation Yrotation 
				JOINT Foot_L
				{
					OFFSET 40.9854 0.0 -1.26872e-05
					CHANNELS 6 Xposition Yposition Zposition Zrotation Xrotation Yrotation 
					JOINT Toes_L
					{
						OFFSET 11.7543 0.0 0.0
						CHANNELS 6 Xposition Yposition Zposition Zrotation Xrotation Yrotation 
						End Site
						{
							OFFSET 0.0 0.0 0.0
						}
					}
				}
			}
		}
		JOINT UpperLeg_R
		{
			OFFSET -2.19251 6.46944 0.0
			CHANNELS 6 Xposition Yposition Zposition Zrotation Xrotation Yrotation 
			JOINT LowerLeg_R
			{
				OFFSET -39.0811 -0.00228153 -0.0401928
				CHANNELS 6 Xposition Yposition Zposition Zrotation Xrotation Yrotation 
				JOINT Foot_R
				{
					OFFSET -40.9854 0.0 0.0
					CHANNELS 6 Xposition Yposition Zposition Zrotation Xrotation Yrotation 
					JOINT Toes_R
					{
						OFFSET -11.7543 0.0 0.0
						CHANNELS 6 Xposition Yposition Zposition Zrotation Xrotation Yrotation 
						End Site
						{
							OFFSET 0.0 0.0 0.0
						}
					}
				}
			}
		}
	}
}
MOTION
Frames:	6
Frame Time:	0.0333333
0.000000 0.000000 0.000000 0.000000 0.000000 -0.000000 -5.851430 87.250900 44.500800 -90.549000 7.254760 -172.725000 15.735700 0.000005 -0.000001 93.225500 78.972600 -94.158000 8.984550 -0.406207 -0.000000 14.266300 1.173380 -2.012570 16.377300 -0.000001 -0.000001 4.450090 -3.548810 1.551520 6.456720 -0.000001 -0.000000 -0.435081 -3.707500 -1.448310 12.994200 -0.242716 4.980390 -91.109900 3.793110 -73.677000 5.348090 -0.000007 -0.000001 -64.978400 32.141300 -16.641700 24.328600 0.000019 0.000005 5.952260 23.046100 -14.913700 22.291600 -0.000001 0.000005 10.878300 5.195970 2.820000 12.994500 -0.242716 -4.980390 88.728500 9.397240 -82.258600 -5.348130 -0.000001 -0.000004 -53.605000 26.130300 -25.463400 -24.328900 0.000322 -0.000009 1.312040 1.687050 -37.905000 -22.291500 -0.000108 -0.000004 18.955200 5.441770 -4.347750 -2.192480 -6.469440 -0.000000 -179.604000 -9.135150 -15.251700 39.081100 -0.000007 -0.000012 -0.255273 0.237952 47.012000 40.985400 -0.000006 -0.000013 2.293490 2.149170 -74.954500 11.754300 -0.000000 0.000003 -0.000428 -0.003501 -16.706300 -2.192510 6.469440 -0.000001 172.983000 7.060360 167.672000 -39.081100 -0.002282 -0.040193 0.168916 -0.061272 69.718000 -40.985400 0.000008 0.000006 6.155920 -4.842510 -56.755900 -11.754300 -0.000006 -0.000006 -0.019227 -0.162968 -23.229900
0.000000 0.000000 0.000000 0.000000 0.000000 -0.000000 -5.967540 87.481900 42.127800 -90.133700 7.052080 -172.784000 15.735700 0.000005 -0.000001 92.046000 79.048800 -92.783700 8.984550 -0.406207 -0.000000 14.128400 0.731927 -1.566780 16.377300 -0.000001 -0.000001 4.383600 -3.504310 1.398170 6.456720 -0.000001 -0.000000 -0.612501 -3.423320 -2.272700 12.994200 -0.242716 4.980390 -91.203700 4.168580 -73.878100 5.348090 -0.000007 -0.000001 -62.637200 31.981900 -18.705200 24.328600 0.000019 0.000005 6.414630 22.484200 -16.382200 22.291600 -0.000001 0.000005 11.586200 5.208030 2.517150 12.994500 -0.242716 -4.980390 88.704200 9.387010 -82.104400 -5.348130 -0.000001 -0.000004 -53.742900 27.244700 -25.266900 -24.328900 0.000322 -0.000009 1.588140 2.062340 -37.631500 -22.291500 -0.000108 -0.000004 18.777100 5.442700 -4.380610 -2.192480 -6.469440 -0.000000 -179.166000 -9.281520 -12.891300 39.081100 -0.000007 -0.000012 -0.261610 0.252897 45.970900 40.985400 -0.000006 -0.000013 2.511110 2.423530 -76.287500 11.754300 -0.000000 0.000003 -0.000470 -0.003781 -16.716100 -2.192510 6.469440 -0.000001 173.770000 8.446300 165.460000 -39.081100 -0.002282 -0.040193 0.164419 -0.054759 71.251100 -40.985400 0.000008 0.000006 6.513380 -7.225380 -57.813100 -11.754300 -0.000006 -0.000006 -0.017471 -0.152856 -22.813800
0.000000 0.000000 0.000000 0.000000 0.000000 -0.000000 -5.988440 87.898700 39.900400 -89.783400 6.845750 -172.951000 15.735700 0.000005 -0.000001 91.121200 79.163600 -91.681700 8.984550 -0.406207 -0.000000 13.905100 0.389293 -1.168810 16.377300 -0.000001 -0.000001 4.352170 -3.580710 1.348550 6.456720 -0.000001 -0.000000 -0.727577 -3.252740 -2.577030 12.994200 -0.242716 4.980390 -91.191300 4.190670 -74.115400 5.348090 -0.000007 -0.000001 -60.864600 31.523100 -20.872500 24.328600 0.000019 0.000005 6.966600 22.282700 -17.861800 22.291600 -0.000001 0.000005 12.528700 5.210420 2.457220 12.994500 -0.242716 -4.980390 88.694700 9.289090 -81.964900 -5.348130 -0.000001 -0.000004 -54.256500 28.401100 -24.395500 -24.328900 0.000322 -0.000009 1.688580 2.246820 -36.959700 -22.291500 -0.000108 -0.000004 18.418200 5.442710 -4.381070 -2.192480 -6.469440 -0.000000 -178.741000 -9.357950 -10.275600 39.081100 -0.000007 -0.000012 -0.264959 0.274870 43.948800 40.985400 -0.000006 -0.000013 2.610830 2.692460 -77.005200 11.754300 -0.000000 0.000003 -0.000528 -0.004166 -16.729500 -2.192510 6.469440 -0.000001 174.829000 9.519220 163.592000 -39.081100 -0.002282 -0.040193 0.146399 -0.051796 70.126000 -40.985400 0.000008 0.000006 6.430070 -7.668940 -59.401300 -11.754300 -0.000006 -0.000006 -0.016705 -0.148300 -22.626600
0.000000 0.000000 0.000000 0.000000 0.000000 -0.000000 -5.923860 88.400500 37.844300 -89.435900 6.748830 -173.452000 15.735700 0.000005 -0.000001 90.586300 79.379400 -90.973800 8.984550 -0.406207 -0.000000 13.475000 0.195756 -0.798334 16.377300 -0.000001 -0.000001 4.257170 -3.706900 1.240970 6.456720 -0.000001 -0.000000 -0.791579 -3.208040 -2.307460 12.994200 -0.242716 4.980390 -91.099500 3.919880 -74.318100 5.348090 -0.000007 -0.000001 -59.797500 30.589900 -22.864700 24.328600 0.000019 0.000005 7.421270 21.600200 -19.485600 22.291600 -0.000001 0.000005 13.102900 5.214320 2.357900 12.994500 -0.242716 -4.980390 88.684800 9.196990 -81.825800 -5.348130 -0.000001 -0.000004 -55.055100 29.470900 -23.027100 -24.328900 0.000322 -0.000009 1.735640 2.404740 -35.854500 -22.291500 -0.000108 -0.000004 17.844300 5.441660 -4.344900 -2.192480 -6.469440 -0.000000 -178.317000 -9.376850 -7.841810 39.081100 -0.000007 -0.000012 -0.256118 0.291324 41.320900 40.985400 -0.000006 -0.000013 2.561180 2.877610 -77.262600 11.754300 -0.000000 0.000003 -0.000475 -0.003813 -16.717200 -2.192510 6.469440 -0.000001 176.177000 10.195500 161.762000 -39.081100 -0.002282 -0.040193 0.119957 -0.050404 66.659000 -40.985400 0.000008 0.000006 6.301780 -6.467340 -60.991300 -11.754300 -0.000006 -0.000006 -0.017409 -0.152487 -22.798700
0.000000 0.000000 0.000000 0.000000 0.000000 -0.000000 -5.743510 88.855100 35.914000 -89.046400 6.472170 -174.123000 15.735700 0.000005 -0.000001 89.709400 79.585100 -89.901500 8.984550 -0.406207 -0.000000 13.063400 -0.113446 -0.371198 16.377300 -0.000001 -0.000001 4.045360 -3.766220 1.189830 6.456720 -0.000001 -0.000000 -0.923905 -3.085760 -2.029790 12.994200 -0.242716 4.980390 -91.006000 3.638330 -74.532700 5.348090 -0.000007 -0.000001 -58.817000 29.567000 -24.802000 24.328600 0.000019 0.000005 7.595620 20.049300 -21.255300 22.291600 -0.000001 0.000005 13.270700 5.219480 2.226270 12.994500 -0.242716 -4.980390 88.663200 9.237800 -81.728900 -5.348130 -0.000001 -0.000004 -55.854300 30.395000 -21.656900 -24.328900 0.000322 -0.000009 1.800390 2.649700 -34.231300 -22.291500 -0.000108 -0.000004 17.355700 5.441970 -4.354230 -2.192480 -6.469440 -0.000000 -177.906000 -9.145830 -5.746000 39.081100 -0.000007 -0.000012 -0.194413 0.242833 38.681300 40.985400 -0.000006 -0.000013 2.684190 2.878240 -77.363200 11.754300 -0.000000 0.000003 -0.168988 -0.233861 -16.553700 -2.192510 6.469440 -0.000001 177.709000 11.024100 160.152000 -39.081100 -0.002282 -0.040193 0.094804 -0.050332 61.215400 -40.985400 0.000008 0.000006 5.676110 -4.914460 -62.531100 -11.754300 -0.000006 -0.000006 -0.018315 -0.157770 -23.016000
0.000000 0.000000 0.000000 0.000000 0.000000 -0.000000 -5.471220 89.224300 34.062100 -88.696100 5.979410 -174.891000 15.735700 0.000005 -0.000001 88.555700 79.781200 -88.534400 8.984550 -0.406207 -0.000000 12.665500 -0.509256 0.099231 16.377300 -0.000001 -0.000001 3.761890 -3.852310 1.129830 6.456720 -0.000001 -0.000000 -1.076210 -2.922140 -1.829820 12.994200 -0.242716 4.980390 -90.947000 3.490820 -74.811200 5.348090 -0.000007 -0.000001 -57.621000 28.845100 -26.720800 24.328600 0.000019 0.000005 7.692280 18.458600 -23.103300 22.291600 -0.000001 0.000005 13.492100 5.229970 1.956310 12.994500 -0.242716 -4.980390 88.612600 9.386170 -81.553100 -5.348130 -0.000001 -0.000004 -56.711100 31.022400 -20.193100 -24.328900 0.000322 -0.000009 1.993620 3.162300 -32.267300 -22.291500 -0.000108 -0.000004 16.789900 5.435380 -4.124410 -2.192480 -6.469440 -0.000000 -177.738000 -8.823730 -4.294540 39.081100 -0.000007 -0.000012 0.016566 -0.022126 36.820300 40.985400 -0.000006 -0.000013 4.692170 2.366270 -77.283500 11.754300 -0.000000 0.000003 -1.421240 -1.914940 -16.038100 -2.192510 6.469440 -0.000001 179.296000 12.288300 158.758000 -39.081100 -0.002282 -0.040193 0.073272 -0.050208 54.366200 -40.985400 0.000008 0.000006 4.884590 -2.857080 -62.889500 -11.754300 -0.000006 -0.000006 -0.017943 -0.155618 -22.927500
